<?xml version="1.0" encoding="utf-8"?>
<svg version="1.1" xmlns="http://www.w3.org/2000/svg" xmlns:xlink="http://www.w3.org/1999/xlink" x="0px" y="0px"
	viewBox="0 0 550 550" style="enable-background:new 0 0 550 550;" xml:space="preserve">
		<style type="text/css">
		@import url('https://fonts.googleapis.com/css2?family=Roboto');
		@import url('https://fonts.googleapis.com/css2?family=Roboto+Mono');

		.label {
			font-family: 'Roboto Mono', monospace;
			font-size: 36px;
		}

		.label_sub {
			font-family: 'Roboto Mono', monospace;
			font-size: 18px;
		}

		.resistor {
			fill: #C9924B;
			stroke: #000000;
			stroke-width: 2;
			stroke-miterlimit: 10;
		}

		.circuit {
			fill: none;
			stroke: #000000;
			stroke-width: 2;
			stroke-miterlimit: 10;
		}

		.endpoint {
			fill: #FFFFFF;
		}

		.connection {
			fill: #000;
		}
	</style>
	<g id="svg_layer">

		<polyline class="circuit" points="95,55 302.2,55 425,55 			" />
		<circle class="circuit endpoint" cx="95" cy="55" r="7" />
		<circle class="circuit endpoint" cx="425" cy="55" r="7" />

		<polyline class="circuit" points="300,275 377,275 425,275 			" />
		<circle class="circuit endpoint" cx="425" cy="275" r="7" />
		<!--  -->
		<line class="circuit" x1="95" y1="495" x2="425" y2="495" />
		<circle class="circuit endpoint" cx="425" cy="495" r="7" />
		<circle class="circuit endpoint" cx="95" cy="495" r="7" />


		<line class="circuit" x1="300" y1="55" x2="300" y2="495" />
		<circle class="circuit connection" cx="300" cy="55" r="7" />
		<circle class="circuit connection" cx="300" cy="275" r="7" />
		<circle class="circuit connection" cx="300" cy="495" r="7" />

		<text transform="matrix(1 0 0 1 45.0001 285.5659)">
			<tspan x="0" y="0" class="label">V</tspan>
			<tspan x="20.1" y="0" class="label_sub">in</tspan>
		</text>

		<path class="resistor"
			d="M315,455h-30c-5.5,0-10-4.5-10-10V325c0-5.5,4.5-10,10-10h30c5.5,0,10,4.5,10,10v120 C325,450.5,320.5,455,315,455z" />
		<text transform="matrix(1 0 0 1 221.505 395.5661)">
			<tspan x="0" y="0" class="label">R</tspan>
			<tspan x="19.4" y="0" class="label_sub">2</tspan>
		</text>
		<text transform="matrix(1 0 0 1 445.0001 175.566)">
			<tspan x="0" y="0" class="label">V</tspan>
			<tspan x="20.1" y="0" class="label_sub">leftover</tspan>
		</text>

		<path class="resistor"
			d="M315,235h-30c-5.5,0-10-4.5-10-10V105c0-5.5,4.5-10,10-10h30c5.5,0,10,4.5,10,10v120 C325,230.5,320.5,235,315,235z" />
		<text transform="matrix(1 0 0 1 221.505 175.566)">
			<tspan x="0" y="0" class="label">R</tspan>
			<tspan x="19.4" y="0" class="label_sub">1</tspan>
		</text>
		<text transform="matrix(1 0 0 1 445.0001 395.5662)">
			<tspan x="0" y="0" class="label">V</tspan>
			<tspan x="20.1" y="0" class="label_sub">goal</tspan>
		</text>
	</g>
</svg>